<?xml version="1.0" encoding="utf-8"?>
<!-- Generator: Adobe Illustrator 15.1.0, SVG Export Plug-In . SVG Version: 6.00 Build 0)  -->
<!DOCTYPE svg PUBLIC "-//W3C//DTD SVG 1.1//EN" "http://www.w3.org/Graphics/SVG/1.1/DTD/svg11.dtd">
<svg version="1.1" id="圖層_3" xmlns="http://www.w3.org/2000/svg" xmlns:xlink="http://www.w3.org/1999/xlink" x="0px" y="0px"
	 width="595.281px" height="841.891px" viewBox="0 0 595.281 841.891" enable-background="new 0 0 595.281 841.891"
	 xml:space="preserve">
<g>
	<g>
		<g>
			<defs>
				<path id="SVGID_1_" d="M271.799,327.481c-0.303,1.468-0.592,2.981-0.877,4.485c-1.266,6.66-2.727,14.29-5.783,20.99h16.932
					l-16.387,24.92c4.566,11.922,7.148,23.469,8.588,33.311l55.037-83.706H271.799z"/>
			</defs>
			<clipPath id="SVGID_2_">
				<use xlink:href="#SVGID_1_"  overflow="visible"/>
			</clipPath>
			
				<linearGradient id="SVGID_3_" gradientUnits="userSpaceOnUse" x1="-5.2966" y1="318.1367" x2="-4.2966" y2="318.1367" gradientTransform="matrix(0 83.7065 -83.7065 0 26927.3516 770.8459)">
				<stop  offset="0" style="stop-color:#FF0000"/>
				<stop  offset="1" style="stop-color:#FF9500"/>
			</linearGradient>
			<rect x="265.138" y="327.481" clip-path="url(#SVGID_2_)" fill="url(#SVGID_3_)" width="64.17" height="83.706"/>
		</g>
	</g>
	<g>
		<g>
			<defs>
				<path id="SVGID_4_" d="M192.664,535.301l17.051-25.934c-7.086,2.287-11.913,3.84-12.052,3.885l-1.006,0.322l2.919,3.453
					l-6.835-2.195l-6.836,2.197l2.921-3.455l-1.006-0.322c-0.141-0.045-5.057-1.625-12.247-3.945L192.664,535.301z"/>
			</defs>
			<clipPath id="SVGID_5_">
				<use xlink:href="#SVGID_4_"  overflow="visible"/>
			</clipPath>
			
				<linearGradient id="SVGID_6_" gradientUnits="userSpaceOnUse" x1="0.3923" y1="319.6714" x2="1.3923" y2="319.6714" gradientTransform="matrix(0 25.9935 -25.9935 0 8502.042 499.0928)">
				<stop  offset="0" style="stop-color:#FF0000"/>
				<stop  offset="1" style="stop-color:#FF9500"/>
			</linearGradient>
			<rect x="175.574" y="509.307" clip-path="url(#SVGID_5_)" fill="url(#SVGID_6_)" width="34.142" height="25.994"/>
		</g>
	</g>
	<g>
		<g>
			<defs>
				<path id="SVGID_7_" d="M56.022,327.481l55.164,83.899c1.426-9.846,3.996-21.407,8.558-33.355l-16.482-25.069h17.084
					c-3.058-6.7-4.519-14.33-5.784-20.99c-0.286-1.504-0.574-3.017-0.876-4.485H56.022z"/>
			</defs>
			<clipPath id="SVGID_8_">
				<use xlink:href="#SVGID_7_"  overflow="visible"/>
			</clipPath>
			
				<linearGradient id="SVGID_9_" gradientUnits="userSpaceOnUse" x1="-5.3035" y1="318.1353" x2="-4.3035" y2="318.1353" gradientTransform="matrix(0 83.8986 -83.8986 0 26779.3125 772.3854)">
				<stop  offset="0" style="stop-color:#FF0000"/>
				<stop  offset="1" style="stop-color:#FF9500"/>
			</linearGradient>
			<rect x="56.022" y="327.481" clip-path="url(#SVGID_8_)" fill="url(#SVGID_9_)" width="64.323" height="83.899"/>
		</g>
	</g>
	<g>
		<g>
			<defs>
				<path id="SVGID_10_" d="M207.488,448.578c0.504,8.289,3.687,15.404,9.044,21.594c-7.943,8.914-15.845,17.779-23.789,26.693
					c-7.944-8.914-15.847-17.779-23.79-26.693c5.359-6.188,8.54-13.305,9.044-21.594c0.282,0.076,12.321,7.863,14.746,8.035
					C195.165,456.441,207.204,448.654,207.488,448.578 M192.741,392.208h10.385c0.354-2.25,0.707-17.59,1.093-20.042
					c0.108,0.317,0.165,0.432,0.188,0.552c0.495,2.642,0.99,7.774,1.476,11.434c0.125,0.94,0.249,7.377,0.371,8.056h7.571
					l1.853-16.352l1.63,16.352c3.253,0,5.958,0,5.958,0c0.21-2.572,0.414-13.291,0.619-15.807c0.079-0.004,0.156-0.009,0.235-0.013
					c18.064,32.257-6.172,46.451-6.554,46.716c0.04,0.08,0.081,0.16,0.12,0.238c3.306,0.814,6.338-0.18,9.45-1.654
					c-0.202,0.336-16.55,18.285-16.55,18.285c0.138,0.043,12.587-6.705,13.762-7.436c0.063,0.053,0.129,0.105,0.191,0.158
					c-5.056,11.742-27.472,16.873-30.956,17.803c-0.265,0.07-0.553,0.105-0.843,0.105s-0.579-0.035-0.845-0.105
					c-3.483-0.93-25.898-6.061-30.955-17.803c0.063-0.053,0.129-0.105,0.193-0.158c1.174,0.73,13.622,7.479,13.76,7.436
					c0,0-16.346-17.949-16.549-18.285c3.111,1.475,6.146,2.469,9.45,1.654c0.041-0.078,0.079-0.158,0.119-0.238
					c-0.382-0.266-24.617-14.459-6.554-46.716c0.079,0.004,0.157,0.009,0.237,0.013c0.203,2.516,0.408,13.234,0.617,15.807
					c0,0,2.706,0,5.959,0l1.629-16.352l1.853,16.352h7.571c0.123-0.679,0.248-7.115,0.373-8.056
					c0.483-3.66,0.979-8.792,1.475-11.434c0.021-0.12,0.078-0.235,0.188-0.552c0.385,2.452,0.736,17.792,1.092,20.042H192.741
					L192.741,392.208z M191.81,344.273c-16.512,6.76-30.682,20.735-38.662,29.731c0.567,0.19-11.547,27.255,2.271,42.777
					c0,0-7.319-2.906-9.694-10.156c1.566,10.233,6.069,31.487,16.887,36.467c0,0-24.256-6.434-23.7-50.988
					c-1.614,2.347-2.487,3.753-2.507,3.776c-0.074,17.816,5.076,40.618,21.467,65.973c0.188,0.289,0.378,0.58,0.566,0.869
					c-0.068,0.066-0.137,0.131-0.205,0.195c-1.504-1.318-3.086-2.557-4.496-3.971c-20.809-20.832-24.904-46.276-24.538-51.667
					c-0.021-0.019-0.044-0.036-0.067-0.057c-1.657,3.352-2.985,6.72-4.047,9.946c0.695,4.467,4.12,23.426,13.111,30.086
					c0,0-11.918-4.4-15.799-19.813c-1.49,7.527-1.473,12.555-1.332,11.664c0.36,0.32,0.66,0.586,0.959,0.852
					c1.719,1.547,3.457,3.07,5.148,4.645c3.53,3.283,14.85,12.707,18.454,15.787c21.605,18.457,46.271,39.523,47.116,40.207
					c0.846-0.684,25.509-21.75,47.117-40.207c3.604-3.08,14.922-12.504,18.453-15.787c1.691-1.574,3.432-3.098,5.148-4.645
					c0.299-0.266,0.6-0.531,0.959-0.852c0.143,0.891,0.158-4.137-1.332-11.664c-3.881,15.412-15.799,19.813-15.799,19.813
					c8.992-6.66,12.416-25.619,13.111-30.086c-1.061-3.227-2.389-6.595-4.045-9.946c-0.027,0.021-0.049,0.038-0.07,0.057
					c0.367,5.392-3.729,30.835-24.538,51.667c-1.41,1.414-2.992,2.652-4.496,3.971c-0.067-0.064-0.137-0.129-0.204-0.195
					c0.188-0.289,0.378-0.58,0.565-0.869c16.391-25.355,21.542-48.157,21.465-65.973c-0.018-0.023-0.891-1.43-2.506-3.776
					c0.559,44.554-23.7,50.988-23.7,50.988c10.818-4.98,15.321-26.234,16.887-36.467c-2.375,7.25-9.693,10.156-9.693,10.156
					c13.816-15.521,1.702-42.587,2.271-42.777c-7.98-8.996-22.151-22.971-38.663-29.731c-0.272-0.112-0.615-0.205-0.932-0.224
					C192.425,344.068,192.083,344.161,191.81,344.273"/>
			</defs>
			<clipPath id="SVGID_11_">
				<use xlink:href="#SVGID_10_"  overflow="visible"/>
			</clipPath>
			
				<linearGradient id="SVGID_12_" gradientUnits="userSpaceOnUse" x1="-8.6648" y1="317.1792" x2="-7.664" y2="317.1792" gradientTransform="matrix(-15.6714 -261.1922 261.1922 -15.6714 -82780.9141 3244.1658)">
				<stop  offset="0" style="stop-color:#000792"/>
				<stop  offset="1" style="stop-color:#155FFF"/>
			</linearGradient>
			<polygon clip-path="url(#SVGID_11_)" fill="url(#SVGID_12_)" points="121.421,509.188 111.546,344.61 264.064,335.46 
				273.939,500.037 			"/>
		</g>
	</g>
	<g>
		<g>
			<defs>
				<path id="SVGID_13_" d="M126.545,388.766c3.407-12.626,13.877-32.521,27.413-36.048l0.143,0.375
					c-1.672,0.945-3.207,2.032-4.621,3.264c-7.098,6.259-12.06,14.477-16.875,22.555c-1.928,3.291-3.795,6.635-5.685,10
					L126.545,388.766z M252.881,378.912c-4.816-8.078-9.779-16.296-16.875-22.555c-1.414-1.232-2.951-2.319-4.623-3.264l0.143-0.375
					c13.538,3.527,24.006,23.422,27.415,36.048l-0.375,0.146C256.674,385.546,254.806,382.203,252.881,378.912 M141.105,333.953
					c0.699,2.75,2.453,4.745,4.543,6.531c-1.553,1.954-3.08,3.873-4.608,5.792C139.549,343.277,139.181,336.063,141.105,333.953
					 M239.834,340.484c2.094-1.786,3.848-3.781,4.545-6.531c1.924,2.11,1.555,9.324,0.066,12.323
					C242.916,344.357,241.388,342.438,239.834,340.484 M134.38,331.822c0.422,8.188,4.574,14.009,5.406,15.243
					c0.298,0.444,0.409,0.768,0.034,1.189c-0.184,0.203-0.321,0.447-0.528,0.743C134.244,344.036,133.244,334.731,134.38,331.822
					 M245.662,348.254c-0.375-0.421-0.264-0.745,0.035-1.189c0.83-1.234,4.984-7.055,5.406-15.243
					c1.135,2.909,0.135,12.214-4.912,17.175C245.984,348.701,245.845,348.457,245.662,348.254 M131.556,350.922
					c-4.139-6.446-6.724-13.475-7.642-21.09c-0.399-3.328-0.325-6.641,0.65-9.889c0.093-0.307,0.078-0.646,0.117-1.01
					c1.373-0.478,2.811-0.593,4.26-0.511c5.306,0.302,10.178,2.032,14.772,4.606c2.786,1.56,5.386,3.387,7.33,5.973
					c0.614,0.82,1.03,1.794,1.509,2.713c0.219,0.423,0.129,0.798-0.248,1.154c-0.937,0.89-1.834,1.82-2.752,2.738
					c-0.703-0.862-1.306-1.751-2.055-2.491c-4.25-4.197-9.238-7.072-15.125-8.304c-0.049-0.009-0.097-0.036-0.146-0.037
					c-0.625-0.029-1.537-0.32-1.813-0.022c-0.435,0.469-0.563,1.327-0.609,2.033c-0.164,2.37,0.186,4.706,0.651,7.024
					c1.001,4.968,5.763,15.824,6.795,17.703c0.107,0.195,0.174,0.547,0.07,0.704c-0.711,1.078-1.469,2.124-2.348,3.372
					C133.765,353.946,132.566,352.495,131.556,350.922 M233.177,332.868c-0.375-0.356-0.466-0.731-0.247-1.154
					c0.478-0.919,0.894-1.893,1.51-2.713c1.943-2.586,4.544-4.413,7.328-5.973c4.598-2.574,9.469-4.304,14.773-4.606
					c1.449-0.082,2.887,0.033,4.26,0.511c0.039,0.364,0.025,0.703,0.117,1.01c0.977,3.248,1.053,6.561,0.65,9.889
					c-0.918,7.615-3.504,14.644-7.641,21.09c-1.012,1.573-2.209,3.024-3.42,4.666c-0.877-1.248-1.637-2.294-2.346-3.372
					c-0.104-0.157-0.039-0.509,0.068-0.704c1.033-1.879,5.795-12.735,6.797-17.703c0.465-2.318,0.814-4.654,0.652-7.024
					c-0.049-0.706-0.176-1.563-0.611-2.033c-0.277-0.298-1.188-0.007-1.814,0.022c-0.051,0.001-0.098,0.028-0.146,0.037
					c-5.885,1.232-10.873,4.107-15.125,8.304c-0.748,0.74-1.349,1.629-2.053,2.491C235.012,334.688,234.115,333.758,233.177,332.868
					 M192.741,317.22c9.906,4.918,25.043,14.653,34.211,31.269c0,0-17.938-17.936-34.211-24.728
					c-16.271,6.792-34.211,24.728-34.211,24.728C167.698,331.873,182.834,322.138,192.741,317.22 M191.909,305.733
					c-0.679,0.179-23.849,13.151-31.392,19.485c-3.301-11.726-31.414-17.95-47.357-11.927c-0.189,0.072-0.45-0.05-0.68-0.075
					c-0.265-0.029-0.531-0.051-0.795-0.075c0.085,0.239,0.102,0.558,0.269,0.702c7.897,6.797,4.307,36.167,19.272,47.947
					c-20.481,36.342-18.1,74.872-18.15,75.909c-0.651,13.598,27.12,37.393,27.264,37.584c-10.603,2.705-12.276,11.457-11.895,14.969
					c0.096,0.025,0.178,0.051,0.259,0.078c20.248,6.715,60.196,19.553,60.196,19.553c-0.235-0.279-22.762-14.75-36.807-24.051
					c-0.201-0.133-0.387-0.287-0.578-0.43c9.715,1.088,16.442,3.557,17.814,3.248c0,0-0.627-1.279-2.438-2.959
					c-10.901-10.1-21.014-19.799-31.912-29.902c-5.517-5.113-11.057-10.197-16.605-15.27c-1.357-1.242,3.737-62.313,70.337-100.398
					c0.921-0.525,1.908-0.938,2.885-1.363c0.377-0.164,0.762-0.239,1.146-0.239c0.383,0,0.768,0.075,1.146,0.239
					c0.976,0.425,1.963,0.838,2.885,1.363c66.598,38.085,71.694,99.156,70.336,100.398c-5.551,5.072-11.09,10.156-16.604,15.27
					c-10.898,10.104-21.012,19.803-31.914,29.902c-1.813,1.68-2.438,2.959-2.438,2.959c1.371,0.309,8.101-2.16,17.814-3.248
					c-0.192,0.143-0.378,0.297-0.578,0.43c-14.044,9.301-36.571,23.771-36.809,24.051c0,0,39.949-12.838,60.198-19.553
					c0.08-0.027,0.164-0.053,0.26-0.078c0.383-3.512-1.293-12.264-11.896-14.969c0.145-0.191,27.916-23.986,27.264-37.584
					c-0.049-1.037,2.332-39.567-18.148-75.909c14.967-11.78,11.375-41.15,19.271-47.947c0.168-0.144,0.184-0.463,0.27-0.702
					c-0.266,0.024-0.531,0.046-0.795,0.075c-0.229,0.025-0.49,0.147-0.682,0.075c-15.943-6.023-44.056,0.201-47.357,11.927
					c-7.542-6.334-30.712-19.306-31.392-19.485c-0.256-0.067-0.548-0.126-0.831-0.143
					C192.457,305.607,192.166,305.666,191.909,305.733"/>
			</defs>
			<clipPath id="SVGID_14_">
				<use xlink:href="#SVGID_13_"  overflow="visible"/>
			</clipPath>
			
				<linearGradient id="SVGID_15_" gradientUnits="userSpaceOnUse" x1="-8.6648" y1="317.165" x2="-7.6648" y2="317.165" gradientTransform="matrix(-15.6714 -261.1923 261.1923 -15.6714 -82776.4609 3243.6934)">
				<stop  offset="0" style="stop-color:#000792"/>
				<stop  offset="1" style="stop-color:#155FFF"/>
			</linearGradient>
			<polygon clip-path="url(#SVGID_14_)" fill="url(#SVGID_15_)" points="111.334,519.686 98.532,306.323 274.148,295.786 
				286.949,509.15 			"/>
		</g>
	</g>
	<g>
		<g>
			<defs>
				<path id="SVGID_16_" d="M193.039,430.387h-0.585h-0.584c1.196,3.648-8.89-0.293-8.89-0.293
					c-0.078,0.236,0.998,1.793,2.373,2.105c2.274,0.514,3.775,2.348,5.842,3.049c0.341,0.16,0.814,0.254,1.259,0.291
					c0.447-0.037,0.918-0.131,1.261-0.291c2.066-0.701,3.566-2.535,5.843-3.049c1.375-0.313,2.45-1.869,2.372-2.105
					C201.93,430.094,191.845,434.035,193.039,430.387"/>
			</defs>
			<clipPath id="SVGID_17_">
				<use xlink:href="#SVGID_16_"  overflow="visible"/>
			</clipPath>
			
				<linearGradient id="SVGID_18_" gradientUnits="userSpaceOnUse" x1="-8.6575" y1="317.1748" x2="-7.6767" y2="317.1748" gradientTransform="matrix(-15.6712 -261.1882 261.1882 -15.6712 -82779.4063 3244.0305)">
				<stop  offset="0" style="stop-color:#000792"/>
				<stop  offset="1" style="stop-color:#155FFF"/>
			</linearGradient>
			<polygon clip-path="url(#SVGID_17_)" fill="url(#SVGID_18_)" points="182.972,436.682 182.576,430.113 201.94,428.953 
				202.332,435.52 			"/>
		</g>
	</g>
	<g>
		<g>
			<defs>
				<path id="SVGID_19_" d="M193.966,423.789l-3.1,2.48l5.063-0.828l-3.227-14.901C192.105,417.589,193.966,423.789,193.966,423.789
					"/>
			</defs>
			<clipPath id="SVGID_20_">
				<use xlink:href="#SVGID_19_"  overflow="visible"/>
			</clipPath>
			
				<linearGradient id="SVGID_21_" gradientUnits="userSpaceOnUse" x1="-8.6648" y1="317.1768" x2="-7.6648" y2="317.1768" gradientTransform="matrix(-15.6713 -261.1911 261.1911 -15.6713 -82779.1641 3243.8669)">
				<stop  offset="0" style="stop-color:#000792"/>
				<stop  offset="1" style="stop-color:#155FFF"/>
			</linearGradient>
			<polygon clip-path="url(#SVGID_20_)" fill="url(#SVGID_21_)" points="190.886,426.57 189.927,410.596 195.91,410.237 
				196.868,426.213 			"/>
		</g>
	</g>
	<g>
		<g>
			<defs>
				<path id="SVGID_22_" d="M171.248,404.191c0-2.445,1.982-4.427,4.429-4.427c1.516,0,2.85,0.762,3.647,1.922
					c0.08-0.563,0.158-1.136,0.252-1.729c1.144,0.672,2.537,1.549,2.537,1.549s-0.633,6.391-3.969,11.092
					c-0.819,1.154-1.801,2.259-2.902,3.139c-2.947,2.351-6.309,2.203-9.182-0.248c-1.832-1.564-2.955-3.607-3.85-5.795
					c-0.924-2.262-1.423-4.629-1.665-7.059c-0.052-0.508,0.032-0.93,0.396-1.254c0.509-0.453,1.061-0.858,1.644-1.325
					c0.173,1.778,0.27,3.38,0.496,4.96c0.272,1.898,0.915,3.691,1.998,5.285c1.45,2.133,3.328,3.531,6.073,3.257
					c1.533-0.153,2.805-0.88,3.888-1.94c1.038-1.016,1.84-2.158,2.46-3.394c-0.557,0.252-1.174,0.396-1.823,0.396
					C173.232,408.619,171.248,406.636,171.248,404.191 M154.496,401.982c0.601,0.598,2.699,2.115,3.3,2.714
					c0.428-0.442,1.766-1.831,1.873-1.873c0.039,0.179,0.068,0.298,0.094,0.419c1.348,6.541,3.605,17.171,11.033,17.076
					c3.071-0.039,9.004-4.4,11.537-15.029c0.214-0.893,0.36-1.802,0.567-2.855c0.859-0.258,2.39,0.467,2.813,0.828
					c-2.28-5.91-9.04-8.573-15.757-8.573C163.29,394.687,156.665,397.309,154.496,401.982"/>
			</defs>
			<clipPath id="SVGID_23_">
				<use xlink:href="#SVGID_22_"  overflow="visible"/>
			</clipPath>
			
				<linearGradient id="SVGID_24_" gradientUnits="userSpaceOnUse" x1="-8.6648" y1="317.1743" x2="-7.6648" y2="317.1743" gradientTransform="matrix(-15.6714 -261.1927 261.1927 -15.6714 -82801.375 3245.3113)">
				<stop  offset="0" style="stop-color:#000792"/>
				<stop  offset="1" style="stop-color:#155FFF"/>
			</linearGradient>
			<polygon clip-path="url(#SVGID_23_)" fill="url(#SVGID_24_)" points="154.609,422.281 152.958,394.779 185.601,392.821 
				187.25,420.321 			"/>
		</g>
	</g>
	<g>
		<g>
			<defs>
				<path id="SVGID_25_" d="M214.637,404.191c0-2.445,1.981-4.427,4.428-4.427c1.535,0,2.888,0.782,3.683,1.969
					c0.048-0.546,0.095-1.101,0.151-1.678c0.583,0.467,1.134,0.872,1.642,1.325c0.363,0.324,0.448,0.746,0.396,1.254
					c-0.242,2.43-0.741,4.797-1.664,7.059c-0.895,2.188-2.019,4.23-3.852,5.795c-2.873,2.451-6.231,2.599-9.181,0.248
					c-1.104-0.88-2.082-1.984-2.901-3.139c-3.338-4.701-3.971-11.092-3.971-11.092s1.395-0.877,2.537-1.549
					c0.235,1.502,0.379,2.889,0.683,4.24c0.628,2.803,1.76,5.371,3.854,7.42c1.084,1.061,2.354,1.787,3.888,1.94
					c2.745,0.274,4.624-1.124,6.073-3.257c0.551-0.811,0.986-1.672,1.318-2.572c-0.74,0.557-1.658,0.891-2.657,0.891
					C216.618,408.619,214.637,406.636,214.637,404.191 M199.772,403.261c0.421-0.361,1.951-1.086,2.811-0.828
					c0.207,1.054,0.355,1.963,0.567,2.855c2.534,10.629,8.467,14.99,11.538,15.029c7.427,0.096,9.685-10.535,11.033-17.076
					c0.024-0.121,0.054-0.24,0.094-0.419c0.107,0.042,1.444,1.431,1.874,1.873c0.599-0.599,2.698-2.116,3.298-2.714
					c-2.169-4.672-8.794-7.294-15.459-7.294C208.809,394.688,202.051,397.35,199.772,403.261"/>
			</defs>
			<clipPath id="SVGID_26_">
				<use xlink:href="#SVGID_25_"  overflow="visible"/>
			</clipPath>
			
				<linearGradient id="SVGID_27_" gradientUnits="userSpaceOnUse" x1="-8.6648" y1="317.1743" x2="-7.6648" y2="317.1743" gradientTransform="matrix(-15.6713 -261.1912 261.1912 -15.6713 -82755.8281 3242.6436)">
				<stop  offset="0" style="stop-color:#000792"/>
				<stop  offset="1" style="stop-color:#155FFF"/>
			</linearGradient>
			<polygon clip-path="url(#SVGID_26_)" fill="url(#SVGID_27_)" points="199.883,422.281 198.234,394.78 230.873,392.822 
				232.525,420.321 			"/>
		</g>
	</g>
	<g>
		<g>
			<defs>
				<path id="SVGID_28_" d="M192.741,465.609c-6.903,0-12.913-3.828-16.023-9.477c-0.74,2.598-1.779,5.063-3.094,7.412
					c4.481,5.611,11.377,9.211,19.117,9.211s14.635-3.6,19.117-9.211c-1.313-2.35-2.354-4.814-3.095-7.412
					C205.655,461.781,199.647,465.609,192.741,465.609"/>
			</defs>
			<clipPath id="SVGID_29_">
				<use xlink:href="#SVGID_28_"  overflow="visible"/>
			</clipPath>
			
				<linearGradient id="SVGID_30_" gradientUnits="userSpaceOnUse" x1="-8.6628" y1="317.1753" x2="-7.6696" y2="317.1753" gradientTransform="matrix(-15.6714 -261.193 261.193 -15.6714 -82782.75 3244.1526)">
				<stop  offset="0" style="stop-color:#000792"/>
				<stop  offset="1" style="stop-color:#155FFF"/>
			</linearGradient>
			<polygon clip-path="url(#SVGID_29_)" fill="url(#SVGID_30_)" points="173.763,475.041 172.632,456.191 211.722,453.848 
				212.853,472.695 			"/>
		</g>
	</g>
	<g>
		<g>
			<defs>
				<path id="SVGID_31_" d="M189.73,483.287l2.474-2.371v2.371v2.371L189.73,483.287z M192.741,474.586
					c-8.097,0-15.271-3.938-19.722-9.996c-0.213,0.35-0.428,0.697-0.652,1.043c4.297,6.451,11.574,10.746,19.865,10.914v2.85
					l-3.864,3.865l4.373,4.375l4.373-4.375l-3.866-3.865v-2.85c8.292-0.168,15.569-4.463,19.866-10.914
					c-0.225-0.346-0.439-0.693-0.651-1.043C208.011,470.648,200.838,474.586,192.741,474.586"/>
			</defs>
			<clipPath id="SVGID_32_">
				<use xlink:href="#SVGID_31_"  overflow="visible"/>
			</clipPath>
			
				<linearGradient id="SVGID_33_" gradientUnits="userSpaceOnUse" x1="-8.6672" y1="317.1729" x2="-7.6572" y2="317.1729" gradientTransform="matrix(-15.6713 -261.1911 261.1911 -15.6713 -82782.1641 3244.1169)">
				<stop  offset="0" style="stop-color:#000792"/>
				<stop  offset="1" style="stop-color:#155FFF"/>
			</linearGradient>
			<polygon clip-path="url(#SVGID_32_)" fill="url(#SVGID_33_)" points="172.515,490.072 170.99,464.672 212.969,462.152 
				214.492,487.553 			"/>
		</g>
	</g>
</g>
<g>
	<g>
		<defs>
			<path id="SVGID_34_" d="M296.187,481.73l-1.824-9.75h-10.471l-1.67,9.75h-8.73l9.643-46.957h11.762l10.096,46.957H296.187z
				 M285.029,465.506h8.121l-4.174-22.473L285.029,465.506z"/>
		</defs>
		<clipPath id="SVGID_35_">
			<use xlink:href="#SVGID_34_"  overflow="visible"/>
		</clipPath>
		
			<linearGradient id="SVGID_36_" gradientUnits="userSpaceOnUse" x1="-7.2625" y1="317.8687" x2="-6.2466" y2="317.8687" gradientTransform="matrix(251.4497 0 0 251.4497 2099.7039 -79469.7266)">
			<stop  offset="0" style="stop-color:#000792"/>
			<stop  offset="1" style="stop-color:#155FFF"/>
		</linearGradient>
		<rect x="273.492" y="434.773" clip-path="url(#SVGID_35_)" fill="url(#SVGID_36_)" width="31.498" height="46.957"/>
	</g>
</g>
<g>
	<g>
		<defs>
			<polygon id="SVGID_37_" points="327.76,434.773 335.728,434.773 335.728,481.73 327.531,481.73 317.283,450.623 317.283,481.73 
				309.24,481.73 309.24,434.773 317.664,434.773 327.76,465.432 			"/>
		</defs>
		<clipPath id="SVGID_38_">
			<use xlink:href="#SVGID_37_"  overflow="visible"/>
		</clipPath>
		
			<linearGradient id="SVGID_39_" gradientUnits="userSpaceOnUse" x1="-7.2634" y1="317.8687" x2="-6.2397" y2="317.8687" gradientTransform="matrix(251.4497 0 0 251.4497 2099.7039 -79469.7266)">
			<stop  offset="0" style="stop-color:#000792"/>
			<stop  offset="1" style="stop-color:#155FFF"/>
		</linearGradient>
		<rect x="309.24" y="434.773" clip-path="url(#SVGID_38_)" fill="url(#SVGID_39_)" width="26.488" height="46.957"/>
	</g>
</g>
<g>
	<g>
		<defs>
			<rect id="SVGID_40_" x="343.547" y="434.773" width="8.729" height="46.957"/>
		</defs>
		<clipPath id="SVGID_41_">
			<use xlink:href="#SVGID_40_"  overflow="visible"/>
		</clipPath>
		
			<linearGradient id="SVGID_42_" gradientUnits="userSpaceOnUse" x1="-7.2693" y1="317.8687" x2="-6.2259" y2="317.8687" gradientTransform="matrix(251.4497 0 0 251.4497 2099.7039 -79469.7266)">
			<stop  offset="0" style="stop-color:#000792"/>
			<stop  offset="1" style="stop-color:#155FFF"/>
		</linearGradient>
		<rect x="343.547" y="434.773" clip-path="url(#SVGID_41_)" fill="url(#SVGID_42_)" width="8.729" height="46.957"/>
	</g>
</g>
<g>
	<g>
		<defs>
			<polygon id="SVGID_43_" points="367.758,481.73 360.015,481.73 360.015,434.773 369.578,434.773 377.625,462.678 385.67,434.773 
				395.234,434.773 395.234,481.73 387.568,481.73 387.568,448.762 381.193,471.535 374.133,471.535 367.758,448.838 			"/>
		</defs>
		<clipPath id="SVGID_44_">
			<use xlink:href="#SVGID_43_"  overflow="visible"/>
		</clipPath>
		
			<linearGradient id="SVGID_45_" gradientUnits="userSpaceOnUse" x1="-7.2615" y1="317.8687" x2="-6.2437" y2="317.8687" gradientTransform="matrix(251.4497 0 0 251.4497 2099.7039 -79469.7266)">
			<stop  offset="0" style="stop-color:#000792"/>
			<stop  offset="1" style="stop-color:#155FFF"/>
		</linearGradient>
		<rect x="360.015" y="434.773" clip-path="url(#SVGID_44_)" fill="url(#SVGID_45_)" width="35.219" height="46.957"/>
	</g>
</g>
<g>
	<g>
		<defs>
			<polygon id="SVGID_46_" points="411.398,475.182 425.969,475.182 425.969,481.73 402.594,481.73 402.594,434.773 
				425.363,434.773 425.363,441.322 411.398,441.322 411.398,454.344 423.162,454.344 423.162,460.967 411.398,460.967 			"/>
		</defs>
		<clipPath id="SVGID_47_">
			<use xlink:href="#SVGID_46_"  overflow="visible"/>
		</clipPath>
		
			<linearGradient id="SVGID_48_" gradientUnits="userSpaceOnUse" x1="-7.2634" y1="317.8687" x2="-6.242" y2="317.8687" gradientTransform="matrix(251.4497 0 0 251.4497 2099.7039 -79469.7266)">
			<stop  offset="0" style="stop-color:#000792"/>
			<stop  offset="1" style="stop-color:#155FFF"/>
		</linearGradient>
		<rect x="402.594" y="434.773" clip-path="url(#SVGID_47_)" fill="url(#SVGID_48_)" width="23.375" height="46.957"/>
	</g>
</g>
<g>
	<g>
		<defs>
			<polygon id="SVGID_49_" points="466.422,441.322 452.002,441.322 452.002,455.609 463.769,455.609 463.769,461.861 
				452.002,461.861 452.002,481.73 443.199,481.73 443.199,434.773 466.422,434.773 			"/>
		</defs>
		<clipPath id="SVGID_50_">
			<use xlink:href="#SVGID_49_"  overflow="visible"/>
		</clipPath>
		
			<linearGradient id="SVGID_51_" gradientUnits="userSpaceOnUse" x1="-7.26" y1="317.8687" x2="-6.2438" y2="317.8687" gradientTransform="matrix(251.4497 0 0 251.4497 2099.7039 -79469.7266)">
			<stop  offset="0" style="stop-color:#000792"/>
			<stop  offset="1" style="stop-color:#155FFF"/>
		</linearGradient>
		<rect x="443.199" y="434.773" clip-path="url(#SVGID_50_)" fill="url(#SVGID_51_)" width="23.225" height="46.957"/>
	</g>
</g>
<g>
	<g>
		<defs>
			<path id="SVGID_52_" d="M490.406,481.73l-1.822-9.75h-10.471l-1.672,9.75h-8.729l9.641-46.957h11.764l10.096,46.957H490.406z
				 M479.25,465.506h8.121l-4.176-22.473L479.25,465.506z"/>
		</defs>
		<clipPath id="SVGID_53_">
			<use xlink:href="#SVGID_52_"  overflow="visible"/>
		</clipPath>
		
			<linearGradient id="SVGID_54_" gradientUnits="userSpaceOnUse" x1="-7.2595" y1="317.8687" x2="-6.2436" y2="317.8687" gradientTransform="matrix(251.4497 0 0 251.4497 2099.7039 -79469.7266)">
			<stop  offset="0" style="stop-color:#000792"/>
			<stop  offset="1" style="stop-color:#155FFF"/>
		</linearGradient>
		<rect x="467.713" y="434.773" clip-path="url(#SVGID_53_)" fill="url(#SVGID_54_)" width="31.498" height="46.957"/>
	</g>
</g>
<g>
	<g>
		<defs>
			<polygon id="SVGID_55_" points="521.98,434.773 529.949,434.773 529.949,481.73 521.752,481.73 511.506,450.623 511.506,481.73 
				503.461,481.73 503.461,434.773 511.885,434.773 521.98,465.432 			"/>
		</defs>
		<clipPath id="SVGID_56_">
			<use xlink:href="#SVGID_55_"  overflow="visible"/>
		</clipPath>
		
			<linearGradient id="SVGID_57_" gradientUnits="userSpaceOnUse" x1="-7.2664" y1="317.8687" x2="-6.2427" y2="317.8687" gradientTransform="matrix(251.4497 0 0 251.4497 2099.7039 -79469.7266)">
			<stop  offset="0" style="stop-color:#000792"/>
			<stop  offset="1" style="stop-color:#155FFF"/>
		</linearGradient>
		<rect x="503.461" y="434.773" clip-path="url(#SVGID_56_)" fill="url(#SVGID_57_)" width="26.488" height="46.957"/>
	</g>
</g>
<g>
	<g>
		<defs>
			<path id="SVGID_58_" d="M311.773,504.863c0,3.625,2.926,6.42,6.697,6.42c1.82,0,3.68-0.811,4.984-2.074l-1.289-1.406
				c-0.975,0.92-2.299,1.496-3.586,1.496c-2.576,0-4.6-1.967-4.6-4.455s2.023-4.436,4.6-4.436c1.307,0,2.648,0.613,3.586,1.605
				l1.27-1.553c-1.248-1.209-3.07-1.947-4.893-1.947C314.736,498.514,311.773,501.273,311.773,504.863"/>
		</defs>
		<clipPath id="SVGID_59_">
			<use xlink:href="#SVGID_58_"  overflow="visible"/>
		</clipPath>
		
			<linearGradient id="SVGID_60_" gradientUnits="userSpaceOnUse" x1="-6.9866" y1="318.0615" x2="-5.9645" y2="318.0615" gradientTransform="matrix(172.812 0 0 172.812 1519.1559 -54459.8633)">
			<stop  offset="0" style="stop-color:#FF0000"/>
			<stop  offset="1" style="stop-color:#FF9500"/>
		</linearGradient>
		<rect x="311.773" y="498.514" clip-path="url(#SVGID_59_)" fill="url(#SVGID_60_)" width="11.684" height="12.77"/>
	</g>
</g>
<g>
	<g>
		<defs>
			<path id="SVGID_61_" d="M333.886,504.881c0-2.508,2.098-4.457,4.635-4.457c2.52,0,4.58,1.949,4.58,4.457
				c0,2.506-2.061,4.488-4.58,4.488C336.004,509.369,333.886,507.387,333.886,504.881 M331.679,504.881c0,3.605,2.979,6.4,6.824,6.4
				c3.844,0,6.822-2.795,6.822-6.4c0-3.607-2.979-6.367-6.822-6.367C334.658,498.514,331.679,501.256,331.679,504.881"/>
		</defs>
		<clipPath id="SVGID_62_">
			<use xlink:href="#SVGID_61_"  overflow="visible"/>
		</clipPath>
		
			<linearGradient id="SVGID_63_" gradientUnits="userSpaceOnUse" x1="-6.9875" y1="318.0615" x2="-5.9622" y2="318.0615" gradientTransform="matrix(172.812 0 0 172.812 1519.1559 -54459.8633)">
			<stop  offset="0" style="stop-color:#FF0000"/>
			<stop  offset="1" style="stop-color:#FF9500"/>
		</linearGradient>
		<rect x="331.679" y="498.514" clip-path="url(#SVGID_62_)" fill="url(#SVGID_63_)" width="13.646" height="12.77"/>
	</g>
</g>
<g>
	<g>
		<defs>
			<polygon id="SVGID_64_" points="366.062,498.568 361.83,506.955 357.58,498.568 355.004,498.568 355.004,511.193 
				357.047,511.193 357.047,501.762 361.113,509.877 362.529,509.877 366.594,501.762 366.613,511.193 368.617,511.193 
				368.617,498.568 			"/>
		</defs>
		<clipPath id="SVGID_65_">
			<use xlink:href="#SVGID_64_"  overflow="visible"/>
		</clipPath>
		
			<linearGradient id="SVGID_66_" gradientUnits="userSpaceOnUse" x1="-6.9866" y1="318.0615" x2="-5.9676" y2="318.0615" gradientTransform="matrix(172.812 0 0 172.812 1519.1559 -54459.8633)">
			<stop  offset="0" style="stop-color:#FF0000"/>
			<stop  offset="1" style="stop-color:#FF9500"/>
		</linearGradient>
		<rect x="355.004" y="498.568" clip-path="url(#SVGID_65_)" fill="url(#SVGID_66_)" width="13.613" height="12.625"/>
	</g>
</g>
<g>
	<g>
		<defs>
			<polygon id="SVGID_67_" points="390.437,498.568 386.203,506.955 381.955,498.568 379.381,498.568 379.381,511.193 
				381.42,511.193 381.42,501.762 385.488,509.877 386.904,509.877 390.969,501.762 390.988,511.193 392.992,511.193 
				392.992,498.568 			"/>
		</defs>
		<clipPath id="SVGID_68_">
			<use xlink:href="#SVGID_67_"  overflow="visible"/>
		</clipPath>
		
			<linearGradient id="SVGID_69_" gradientUnits="userSpaceOnUse" x1="-6.989" y1="318.0615" x2="-5.9638" y2="318.0615" gradientTransform="matrix(172.812 0 0 172.812 1519.1559 -54459.8633)">
			<stop  offset="0" style="stop-color:#FF0000"/>
			<stop  offset="1" style="stop-color:#FF9500"/>
		</linearGradient>
		<rect x="379.381" y="498.568" clip-path="url(#SVGID_68_)" fill="url(#SVGID_69_)" width="13.611" height="12.625"/>
	</g>
</g>
<g>
	<g>
		<defs>
			<path id="SVGID_70_" d="M412.531,498.568v7.395c0,2.146-1.307,3.408-3.404,3.408c-2.113,0-3.457-1.281-3.457-3.408v-7.395h-2.172
				v7.395c0,3.301,2.133,5.32,5.609,5.32c3.479,0,5.594-2.02,5.594-5.32v-7.395H412.531z"/>
		</defs>
		<clipPath id="SVGID_71_">
			<use xlink:href="#SVGID_70_"  overflow="visible"/>
		</clipPath>
		
			<linearGradient id="SVGID_72_" gradientUnits="userSpaceOnUse" x1="-6.988" y1="318.0615" x2="-5.9649" y2="318.0615" gradientTransform="matrix(172.812 0 0 172.812 1519.1559 -54459.8633)">
			<stop  offset="0" style="stop-color:#FF0000"/>
			<stop  offset="1" style="stop-color:#FF9500"/>
		</linearGradient>
		<rect x="403.496" y="498.568" clip-path="url(#SVGID_71_)" fill="url(#SVGID_72_)" width="11.205" height="12.715"/>
	</g>
</g>
<g>
	<g>
		<defs>
			<polygon id="SVGID_73_" points="434.201,498.568 434.201,507.641 427.301,498.568 425.168,498.568 425.168,511.193 
				427.34,511.193 427.34,502.141 434.201,511.193 436.334,511.193 436.334,498.568 			"/>
		</defs>
		<clipPath id="SVGID_74_">
			<use xlink:href="#SVGID_73_"  overflow="visible"/>
		</clipPath>
		
			<linearGradient id="SVGID_75_" gradientUnits="userSpaceOnUse" x1="-6.9836" y1="318.0615" x2="-5.9682" y2="318.0615" gradientTransform="matrix(172.812 0 0 172.812 1519.1559 -54459.8633)">
			<stop  offset="0" style="stop-color:#FF0000"/>
			<stop  offset="1" style="stop-color:#FF9500"/>
		</linearGradient>
		<rect x="425.168" y="498.568" clip-path="url(#SVGID_74_)" fill="url(#SVGID_75_)" width="11.166" height="12.625"/>
	</g>
</g>
<g>
	<g>
		<defs>
			<rect id="SVGID_76_" x="447.097" y="498.568" width="2.17" height="12.625"/>
		</defs>
		<clipPath id="SVGID_77_">
			<use xlink:href="#SVGID_76_"  overflow="visible"/>
		</clipPath>
		
			<linearGradient id="SVGID_78_" gradientUnits="userSpaceOnUse" x1="-7.0022" y1="318.0615" x2="-5.9622" y2="318.0615" gradientTransform="matrix(172.812 0 0 172.812 1519.1559 -54459.8633)">
			<stop  offset="0" style="stop-color:#FF0000"/>
			<stop  offset="1" style="stop-color:#FF9500"/>
		</linearGradient>
		<rect x="447.097" y="498.568" clip-path="url(#SVGID_77_)" fill="url(#SVGID_78_)" width="2.17" height="12.625"/>
	</g>
</g>
<g>
	<g>
		<defs>
			<polygon id="SVGID_79_" points="458.484,498.568 458.484,500.48 462.551,500.48 462.551,511.193 464.72,511.193 464.72,500.48 
				468.802,500.48 468.802,498.568 			"/>
		</defs>
		<clipPath id="SVGID_80_">
			<use xlink:href="#SVGID_79_"  overflow="visible"/>
		</clipPath>
		
			<linearGradient id="SVGID_81_" gradientUnits="userSpaceOnUse" x1="-6.991" y1="318.0615" x2="-5.966" y2="318.0615" gradientTransform="matrix(172.812 0 0 172.812 1519.1559 -54459.8633)">
			<stop  offset="0" style="stop-color:#FF0000"/>
			<stop  offset="1" style="stop-color:#FF9500"/>
		</linearGradient>
		<rect x="458.484" y="498.568" clip-path="url(#SVGID_80_)" fill="url(#SVGID_81_)" width="10.318" height="12.625"/>
	</g>
</g>
<g>
	<g>
		<defs>
			<polygon id="SVGID_82_" points="485.822,498.568 482.215,504.719 478.535,498.568 476.347,498.568 481.148,507.063 
				481.148,511.193 483.301,511.193 483.301,506.99 488.029,498.568 			"/>
		</defs>
		<clipPath id="SVGID_83_">
			<use xlink:href="#SVGID_82_"  overflow="visible"/>
		</clipPath>
		
			<linearGradient id="SVGID_84_" gradientUnits="userSpaceOnUse" x1="-6.9885" y1="318.0615" x2="-5.9663" y2="318.0615" gradientTransform="matrix(172.812 0 0 172.812 1519.1559 -54459.8633)">
			<stop  offset="0" style="stop-color:#FF0000"/>
			<stop  offset="1" style="stop-color:#FF9500"/>
		</linearGradient>
		<rect x="476.347" y="498.568" clip-path="url(#SVGID_83_)" fill="url(#SVGID_84_)" width="11.682" height="12.625"/>
	</g>
</g>
</svg>
